<svg width="780" height="156" viewBox="0 0 780 156" fill="none" xmlns="http://www.w3.org/2000/svg">
<path d="M115.101 82.6632H116.644L140.68 140.106H135.446L127.521 121.56H104.223L96.4568 140.106H91.2223L115.101 82.6632ZM117.87 97.861C117 95.6817 116.318 93.5552 115.826 91.4813C115.176 94.0472 114.525 96.1738 113.875 97.861L106.188 116.987H125.557L117.87 97.861Z" fill="white"/>
<path d="M164.308 108.155C168.018 108.155 171.314 108.876 174.197 110.317C177.089 111.767 179.34 113.771 180.948 116.328C182.557 118.894 183.361 121.78 183.361 124.988C183.361 128.371 182.421 131.398 180.539 134.069C178.658 136.732 175.947 138.639 172.404 139.79C170.057 140.546 166.866 140.923 162.832 140.923C158.094 140.923 154.551 140.787 152.204 140.515L147.959 140.027V84.1263H180.579V88.7133H152.864V108.155H164.308ZM163.649 136.429C168.282 136.429 171.921 135.449 174.567 133.489C177.212 131.53 178.535 128.696 178.535 124.988C178.535 121.394 177.322 118.454 174.896 116.169C172.47 113.876 169.103 112.729 164.796 112.729H152.864V136.02L158.177 136.271L163.649 136.429Z" fill="white"/>
<path d="M215.243 141.504C210.004 141.504 205.288 140.194 201.095 137.576C196.902 134.966 193.606 131.451 191.206 127.031C188.807 122.619 187.607 117.826 187.607 112.65C187.607 107.369 188.859 102.413 191.364 97.782C193.87 93.151 197.276 89.4471 201.583 86.6703C205.89 83.8847 210.549 82.4919 215.559 82.4919C220.139 82.4919 224.433 83.5288 228.442 85.6027C232.45 87.6765 234.559 91.3804 234.77 96.7143H229.866C229.707 93.1203 228.059 90.6686 224.921 89.3593C221.792 88.05 218.535 87.3953 215.151 87.3953C211.063 87.3953 207.279 88.6079 203.798 91.0333C200.309 93.4586 197.553 96.6352 195.531 100.563C193.518 104.482 192.512 108.595 192.512 112.901C192.512 117.039 193.492 120.919 195.452 124.539C197.412 128.169 200.124 131.073 203.587 133.252C207.051 135.431 210.962 136.521 215.322 136.521C219.295 136.521 222.987 135.62 226.398 133.819C229.8 132.018 232.485 129.592 234.454 126.543L238.449 129.324C235.891 133.191 232.542 136.187 228.402 138.314C224.262 140.44 219.875 141.504 215.243 141.504Z" fill="white"/>
<path d="M269.764 141.503C264.481 141.503 259.699 140.264 255.419 137.786C251.138 135.308 247.758 131.903 245.279 127.571C242.8 123.239 241.561 118.428 241.561 113.138V111.596C241.561 106.253 242.787 101.389 245.24 97.0042C247.692 92.6193 251.046 89.1747 255.3 86.6703C259.546 84.1571 264.257 82.9005 269.435 82.9005C274.665 82.9005 279.407 84.1571 283.662 86.6703C287.916 89.1747 291.269 92.6193 293.722 97.0042C296.174 101.389 297.401 106.253 297.401 111.596V113.138C297.401 118.533 296.201 123.384 293.801 127.69C291.401 131.996 288.105 135.374 283.912 137.826C279.71 140.278 274.994 141.503 269.764 141.503ZM269.514 136.93C273.821 136.93 277.719 135.893 281.209 133.819C284.699 131.745 287.45 128.898 289.463 125.278C291.485 121.657 292.496 117.611 292.496 113.138V111.596C292.496 107.07 291.472 102.966 289.423 99.2846C287.384 95.6114 284.606 92.7248 281.09 90.6246C277.574 88.5332 273.663 87.4875 269.355 87.4875C265.101 87.4875 261.233 88.5464 257.752 90.6642C254.263 92.7907 251.507 95.6949 249.485 99.3768C247.472 103.05 246.466 107.123 246.466 111.596V113.138C246.466 117.611 247.472 121.657 249.485 125.278C251.507 128.898 254.276 131.745 257.792 133.819C261.308 135.893 265.215 136.93 269.514 136.93Z" fill="white"/>
<path d="M307.856 141.424C306.494 141.424 305.202 141.121 303.98 140.515C302.749 139.917 301.725 139.074 300.908 137.984L304.507 135.203C305.378 136.354 306.578 136.93 308.107 136.93C309.302 136.93 310.243 136.587 310.929 135.902C311.606 135.225 312.216 134.175 312.761 132.751C313.359 131.117 313.807 129.223 314.106 127.07C314.414 124.926 314.704 122.435 314.977 119.597L315.135 117.633C315.785 109.408 316.168 98.2696 316.282 84.2186L350.366 84.1263V140.106H345.461V88.7924H320.857C320.804 97.3953 320.479 106.398 319.881 115.8C319.275 125.194 318.211 131.692 316.691 135.295C315.82 137.36 314.673 138.898 313.249 139.909C311.834 140.919 310.036 141.424 307.856 141.424Z" fill="white"/>
<path d="M368.021 84.0472V109.869H377.593C377.971 104.263 379.387 99.4559 381.839 95.4488C384.292 91.4418 387.386 88.4321 391.122 86.4198C394.857 84.4075 398.795 83.4014 402.936 83.4014C407.946 83.4014 412.372 84.6799 416.213 87.2371C420.054 89.7942 423.039 93.2652 425.166 97.6501C427.293 102.044 428.357 106.908 428.357 112.242C428.357 117.584 427.28 122.435 425.126 126.793C422.973 131.152 419.975 134.597 416.134 137.127C412.293 139.658 407.92 140.923 403.015 140.923C398.822 140.923 394.857 139.904 391.122 137.865C387.386 135.818 384.292 132.795 381.839 128.797C379.387 124.79 377.971 119.979 377.593 114.364H368.021V140.199H363.116V84.0472H368.021ZM423.452 112.004C423.452 107.426 422.551 103.296 420.749 99.6141C418.956 95.9409 416.503 93.0807 413.391 91.0332C410.289 88.9945 406.83 87.9752 403.015 87.9752C398.822 87.9752 395.156 89.0648 392.018 91.2441C388.889 93.4234 386.489 96.3496 384.819 100.023C383.158 103.705 382.327 107.725 382.327 112.083C382.327 116.547 383.188 120.633 384.911 124.342C386.625 128.041 389.034 130.967 392.137 133.12C395.249 135.273 398.822 136.35 402.856 136.35C406.997 136.35 410.618 135.273 413.721 133.12C416.833 130.967 419.233 128.041 420.92 124.342C422.608 120.633 423.452 116.521 423.452 112.004Z" fill="white"/>
<path d="M448.873 88.7925H429.741V84.2186H472.91V88.7925H453.778V140.106H448.873V88.7925Z" fill="white"/>
<path d="M534.63 140.607C533.048 140.607 531.808 140.181 530.912 139.329C530.015 138.485 528.886 136.974 527.523 134.794L514.931 114.944L500.454 140.106H494.652L511.74 110.607L494.494 84.2186H500.137L515.01 107.009L529.804 84.2186H535.606L518.122 111.266L533.153 134.794C533.646 135.559 534.191 135.941 534.788 135.941C535.333 135.941 535.935 135.778 536.595 135.453L538.388 139.539C538.282 139.592 537.887 139.781 537.201 140.106C536.524 140.44 535.667 140.607 534.63 140.607Z" fill="white"/>
<path d="M566.354 141.503C561.062 141.503 556.276 140.264 551.995 137.786C547.723 135.308 544.348 131.903 541.869 127.571C539.39 123.239 538.151 118.428 538.151 113.138V111.596C538.151 106.253 539.377 101.389 541.829 97.0042C544.282 92.6193 547.631 89.1747 551.877 86.6703C556.131 84.1571 560.847 82.9005 566.024 82.9005C571.254 82.9005 575.997 84.1571 580.251 86.6703C584.497 89.1747 587.846 92.6193 590.298 97.0042C592.751 101.389 593.977 106.253 593.977 111.596V113.138C593.977 118.533 592.777 123.384 590.378 127.69C587.987 131.996 584.69 135.374 580.489 137.826C576.296 140.278 571.584 141.503 566.354 141.503ZM566.103 136.93C570.411 136.93 574.309 135.893 577.799 133.819C581.28 131.745 584.031 128.898 586.053 125.278C588.066 121.657 589.072 117.611 589.072 113.138V111.596C589.072 107.07 588.053 102.966 586.013 99.2846C583.965 95.6114 581.183 92.7248 577.667 90.6246C574.151 88.5332 570.244 87.4875 565.945 87.4875C561.691 87.4875 557.819 88.5464 554.329 90.6642C550.839 92.7907 548.088 95.6949 546.075 99.3768C544.062 103.05 543.056 107.123 543.056 111.596V113.138C543.056 117.611 544.062 121.657 546.075 125.278C548.088 128.898 550.852 131.745 554.369 133.819C557.885 135.893 561.796 136.93 566.103 136.93Z" fill="white"/>
<path d="M604.446 141.424C603.084 141.424 601.787 141.121 600.557 140.515C599.335 139.917 598.315 139.074 597.498 137.984L601.097 135.203C601.967 136.354 603.163 136.93 604.684 136.93C605.888 136.93 606.828 136.587 607.505 135.902C608.191 135.225 608.806 134.175 609.351 132.751C609.949 131.117 610.397 129.223 610.696 127.07C610.995 124.926 611.281 122.435 611.553 119.597L611.724 117.633C612.375 109.408 612.753 98.2696 612.858 84.2186L646.956 84.1263V140.106H642.051V88.7924H617.447C617.385 97.3953 617.056 106.398 616.458 115.8C615.86 125.194 614.797 131.692 613.267 135.295C612.397 137.36 611.254 138.898 609.839 139.909C608.424 140.919 606.626 141.424 604.446 141.424Z" fill="white"/>
<path d="M684.388 141.503C679.105 141.503 674.324 140.264 670.043 137.786C665.771 135.308 662.391 131.903 659.903 127.571C657.424 123.239 656.185 118.428 656.185 113.138V111.596C656.185 106.253 657.411 101.389 659.864 97.0042C662.316 92.6193 665.67 89.1747 669.924 86.6703C674.179 84.1571 678.894 82.9005 684.072 82.9005C689.302 82.9005 694.04 84.1571 698.286 86.6703C702.54 89.1747 705.894 92.6193 708.346 97.0042C710.798 101.389 712.025 106.253 712.025 111.596V113.138C712.025 118.533 710.825 123.384 708.425 127.69C706.025 131.996 702.729 135.374 698.536 137.826C694.343 140.278 689.627 141.503 684.388 141.503ZM684.151 136.93C688.458 136.93 692.352 135.893 695.833 133.819C699.323 131.745 702.079 128.898 704.1 125.278C706.113 121.657 707.12 117.611 707.12 113.138V111.596C707.12 107.07 706.096 102.966 704.048 99.2846C702.008 95.6114 699.231 92.7248 695.715 90.6246C692.198 88.5332 688.287 87.4875 683.98 87.4875C679.734 87.4875 675.866 88.5464 672.377 90.6642C668.887 92.7907 666.136 95.6949 664.123 99.3768C662.101 103.05 661.09 107.123 661.09 111.596V113.138C661.09 117.611 662.101 121.657 664.123 125.278C666.136 128.898 668.9 131.745 672.416 133.819C675.932 135.893 679.844 136.93 684.151 136.93Z" fill="white"/>
<path d="M764.832 153.182V140.106H720.767V153.182H715.862V135.532L720.358 135.374C724.287 128.45 727.285 122.483 729.35 117.474C731.425 112.466 732.954 107.536 733.939 102.685C734.915 97.8347 735.785 91.6791 736.55 84.2186H762.551L762.459 135.532H769.737V153.182H764.832ZM740.888 88.7925C739.85 98.0543 738.242 105.981 736.062 112.571C733.882 119.162 730.339 126.815 725.434 135.532H757.646V88.7925H740.888Z" fill="white"/>
<path d="M24.125 84.4511H76.2253ZM91.5651 62.268V8.625ZM78.0864 69.8826L40.6412 32.4374ZM82.1403 96.2242L44.6952 133.668ZM142.815 30.2341L104.388 68.6598Z" fill="black"/>
<path d="M24.125 84.4511H76.2253M91.5651 62.268V8.625M78.0864 69.8826L40.6412 32.4374M82.1403 96.2242L44.6952 133.668M142.815 30.2341L104.388 68.6598" stroke="white" stroke-width="6" stroke-linecap="round" stroke-linejoin="round"/>
</svg>
