<svg width="230" height="82" viewBox="0 0 230 82" fill="none" xmlns="http://www.w3.org/2000/svg">
<path d="M3.75229 30.8862H23.4004H3.75229ZM29.1853 22.5441V2.37134V22.5441ZM24.1022 25.4076L9.98089 11.3262L24.1022 25.4076ZM25.631 35.3136L11.5097 49.3945L25.631 35.3136ZM48.5127 10.4976L34.021 24.9478L48.5127 10.4976Z" fill="black"/>
<path d="M3.75229 30.8862H23.4004M29.1853 22.5441V2.37134M24.1022 25.4076L9.98089 11.3262M25.631 35.3136L11.5097 49.3945M48.5127 10.4976L34.021 24.9478" stroke="white" stroke-width="3" stroke-linecap="round" stroke-linejoin="round"/>
<path d="M43.1031 49.4391C41.4758 49.4391 39.9725 49.1674 38.5932 48.624C37.214 48.0806 36.0189 47.3161 35.008 46.3305C33.997 45.3412 33.2078 44.1794 32.6403 42.8453C32.0766 41.5074 31.7947 40.0477 31.7947 38.4663C31.7947 36.8848 32.0766 35.427 32.6403 34.0928C33.2078 32.755 34.0026 31.5932 35.0249 30.6076C36.0433 29.622 37.2422 28.8556 38.6214 28.3085C40.0044 27.7651 41.5096 27.4934 43.1369 27.4934C44.704 27.4934 46.1772 27.7557 47.5565 28.2804C48.9357 28.805 50.1008 29.5901 51.0516 30.6357L49.5972 32.086C48.7102 31.1829 47.7312 30.5308 46.6602 30.1298C45.5891 29.7288 44.4353 29.5283 43.1989 29.5283C41.8986 29.5283 40.6922 29.7494 39.5798 30.1916C38.4673 30.6338 37.4996 31.2597 36.6766 32.0692C35.8535 32.8824 35.209 33.8286 34.743 34.9079C34.2807 35.9872 34.0496 37.1734 34.0496 38.4663C34.0496 39.7629 34.2807 40.9509 34.743 42.0302C35.209 43.1057 35.8535 44.0501 36.6766 44.8634C37.4996 45.6766 38.4673 46.3043 39.5798 46.7465C40.6922 47.185 41.8986 47.4042 43.1989 47.4042C44.4353 47.4042 45.5891 47.2 46.6602 46.7915C47.7312 46.3792 48.7102 45.7215 49.5972 44.8184L51.0516 46.2687C50.1008 47.3143 48.9357 48.105 47.5565 48.6409C46.1772 49.1731 44.6928 49.4391 43.1031 49.4391ZM56.4915 49.2536H54.417V27.6789H56.6776V45.5548L70.5227 27.6789H72.5972V49.2536H70.3366V31.4115L56.4915 49.2536ZM87.3724 49.2536H78.5276V27.6789H94.357V29.6239H80.7881V36.6787H87.8629C90.4184 36.6787 92.3614 37.1977 93.6918 38.2358C95.0222 39.2739 95.6874 40.7991 95.6874 42.8116C95.6874 44.8877 94.9714 46.4804 93.5396 47.5897C92.1077 48.699 90.052 49.2536 87.3724 49.2536ZM80.7881 38.5V47.4379H87.3386C89.3379 47.4379 90.8468 47.0519 91.8653 46.2799C92.8875 45.5117 93.3986 44.3874 93.3986 42.9071C93.3986 39.969 91.3786 38.5 87.3386 38.5H80.7881ZM101.68 49.2536H99.6109V27.6789H101.866V45.5548L115.717 27.6789H117.785V49.2536H115.531V31.4115L101.68 49.2536ZM126.01 49.2536H123.721V27.6789H131.822C133.656 27.6789 135.233 27.9712 136.552 28.5558C137.871 29.1442 138.886 29.9874 139.596 31.0854C140.306 32.1835 140.661 33.5139 140.661 35.0766C140.661 36.5981 140.306 37.9079 139.596 39.0059C138.886 40.1077 137.871 40.9565 136.552 41.5524C135.233 42.1482 133.656 42.4462 131.822 42.4462H124.99L126.01 41.3669V49.2536ZM126.01 28.5727V41.5524L124.99 40.4394H131.76C133.925 40.4394 135.567 39.9728 136.687 39.0396C137.811 38.1027 138.373 36.7817 138.373 35.0766C138.373 33.349 137.811 32.013 136.687 31.0686C135.567 30.1242 133.925 29.652 131.76 29.652H124.99L126.01 28.5727ZM153.734 49.4391C152.107 49.4391 150.604 49.1674 149.224 48.624C147.841 48.0806 146.646 47.3161 145.639 46.3305C144.628 45.3412 143.839 44.1794 143.271 42.8453C142.708 41.5074 142.426 40.0477 142.426 38.4663C142.426 36.8848 142.708 35.427 143.271 34.0928C143.839 32.755 144.634 31.5932 145.656 30.6076C146.674 29.622 147.873 28.8556 149.253 28.3085C150.636 27.7651 152.141 27.4934 153.768 27.4934C155.335 27.4934 156.808 27.7557 158.188 28.2804C159.567 28.805 160.732 29.5901 161.683 30.6357L160.228 32.086C159.341 31.1829 158.362 30.5308 157.291 30.1298C156.22 29.7288 155.066 29.5283 153.83 29.5283C152.53 29.5283 151.323 29.7494 150.211 30.1916C149.098 30.6338 148.131 31.2597 147.308 32.0692C146.485 32.8824 145.84 33.8286 145.374 34.9079C144.912 35.9872 144.681 37.1734 144.681 38.4663C144.681 39.7629 144.912 40.9509 145.374 42.0302C145.84 43.1057 146.485 44.0501 147.308 44.8634C148.131 45.6766 149.098 46.3043 150.211 46.7465C151.323 47.185 152.53 47.4042 153.83 47.4042C155.066 47.4042 156.22 47.2 157.291 46.7915C158.362 46.3792 159.341 45.7215 160.228 44.8184L161.683 46.2687C160.732 47.3143 159.567 48.105 158.188 48.6409C156.808 49.1731 155.324 49.4391 153.734 49.4391ZM182.484 49.2536H179.857L171.542 38.5L173.397 37.387L182.484 49.2536ZM167.275 49.2536H165.048V27.6789H167.275V49.2536ZM173.363 39.3601H166.598V37.3589H173.363V39.3601ZM182.022 27.6789L173.583 38.7136L171.48 38.3426L179.547 27.6789H182.022ZM187.462 49.2536H185.387V27.6789H187.648V45.5548L201.493 27.6789H203.568V49.2536H201.307V31.4115L187.462 49.2536ZM211.572 49.2536H209.498V27.6789H211.758V45.5548L225.604 27.6789H227.678V49.2536H225.418V31.4115L211.572 49.2536ZM218.529 26.1049C216.98 26.1049 215.759 25.7564 214.865 25.0593C213.966 24.3623 213.508 23.3861 213.489 22.1306H215.186C215.208 22.9513 215.524 23.5997 216.133 24.0756C216.738 24.5478 217.537 24.7839 218.529 24.7839C219.517 24.7839 220.316 24.5478 220.925 24.0756C221.53 23.5997 221.844 22.9513 221.866 22.1306H223.563C223.544 23.3861 223.082 24.3623 222.176 25.0593C221.267 25.7564 220.051 26.1049 218.529 26.1049ZM38.6214 64.5999L31.2366 54.1498H33.8636L40.0138 62.6887L46.1359 54.1498H48.8249L41.4344 64.51L49.4111 75.7302H46.7222L40.0138 66.4493L33.3055 75.7302H30.6785L38.6214 64.5999ZM61.8695 75.9101C60.2422 75.9101 58.7333 75.6384 57.3428 75.095C55.9485 74.5516 54.7421 73.7815 53.7236 72.7846C52.7052 71.7878 51.9122 70.626 51.3447 69.2994C50.7772 67.9765 50.4935 66.5224 50.4935 64.9372C50.4935 63.3557 50.7772 61.9017 51.3447 60.575C51.9122 59.2521 52.7052 58.0923 53.7236 57.0954C54.7421 56.0986 55.9428 55.3284 57.3258 54.785C58.7051 54.2379 60.2196 53.9643 61.8695 53.9643C63.4968 53.9643 65 54.2379 66.3793 54.785C67.7623 55.3284 68.963 56.0929 69.9815 57.0786C71.0037 58.0642 71.7967 59.2259 72.3604 60.5638C72.9279 61.8979 73.2116 63.3557 73.2116 64.9372C73.2116 66.5224 72.9279 67.9821 72.3604 69.3162C71.7967 70.6504 71.0037 71.8121 69.9815 72.8015C68.963 73.7871 67.7623 74.5516 66.3793 75.095C65 75.6384 63.4968 75.9101 61.8695 75.9101ZM61.8695 73.8808C63.166 73.8808 64.3668 73.6597 65.4717 73.2174C66.5728 72.7752 67.5312 72.1475 68.3467 71.3343C69.1584 70.5248 69.7917 69.5804 70.2464 68.5011C70.7012 67.4218 70.9285 66.2339 70.9285 64.9372C70.9285 63.6443 70.7012 62.4582 70.2464 61.3789C69.7917 60.2996 69.1584 59.3552 68.3467 58.5457C67.5312 57.7325 66.5728 57.1048 65.4717 56.6626C64.3668 56.2204 63.166 55.9993 61.8695 55.9993C60.5691 55.9993 59.3628 56.2204 58.2504 56.6626C57.1379 57.1048 56.1758 57.7325 55.3641 58.5457C54.5486 59.3552 53.9097 60.2996 53.4474 61.3789C52.9814 62.4582 52.7484 63.6443 52.7484 64.9372C52.7484 66.2114 52.9814 67.3937 53.4474 68.4843C53.9097 69.5748 54.5486 70.5248 55.3641 71.3343C56.1758 72.1475 57.1379 72.7752 58.2504 73.2174C59.3628 73.6597 60.5691 73.8808 61.8695 73.8808ZM75.7484 75.9101C75.459 75.9101 75.1809 75.8951 74.9141 75.8651C74.6473 75.8351 74.3485 75.7789 74.0178 75.6965L74.2038 73.6615C74.5533 73.744 74.8934 73.7852 75.2241 73.7852C76.1486 73.7852 76.8946 73.4198 77.4621 72.689C78.0296 71.962 78.458 70.8321 78.7474 69.2994C79.0368 67.7704 79.2228 65.8029 79.3055 63.397L79.6099 54.1498H94.295V75.7302H92.0401V55.5046L92.6263 56.1229H81.0643L81.6224 55.4765L81.3406 63.3351C81.2579 65.4937 81.1038 67.3581 80.8783 68.9284C80.6528 70.5023 80.324 71.8084 79.8918 72.8464C79.4596 73.8845 78.9034 74.6546 78.2232 75.1568C77.5429 75.659 76.718 75.9101 75.7484 75.9101ZM109.718 75.9101C108.091 75.9101 106.582 75.6384 105.192 75.095C103.801 74.5516 102.595 73.7815 101.573 72.7846C100.554 71.7878 99.7612 70.626 99.1937 69.2994C98.6263 67.9765 98.3425 66.5224 98.3425 64.9372C98.3425 63.3557 98.6263 61.9017 99.1937 60.575C99.7612 59.2521 100.554 58.0923 101.573 57.0954C102.595 56.0986 103.796 55.3284 105.175 54.785C106.554 54.2379 108.069 53.9643 109.718 53.9643C111.346 53.9643 112.851 54.2379 114.234 54.785C115.613 55.3284 116.814 56.0929 117.836 57.0786C118.855 58.0642 119.648 59.2259 120.215 60.5638C120.783 61.8979 121.066 63.3557 121.066 64.9372C121.066 66.5224 120.783 67.9821 120.215 69.3162C119.648 70.6504 118.855 71.8121 117.836 72.8015C116.814 73.7871 115.613 74.5516 114.234 75.095C112.851 75.6384 111.346 75.9101 109.718 75.9101ZM109.718 73.8808C111.019 73.8808 112.22 73.6597 113.321 73.2174C114.422 72.7752 115.38 72.1475 116.196 71.3343C117.007 70.5248 117.641 69.5804 118.095 68.5011C118.55 67.4218 118.778 66.2339 118.778 64.9372C118.778 63.6443 118.55 62.4582 118.095 61.3789C117.641 60.2996 117.007 59.3552 116.196 58.5457C115.38 57.7325 114.422 57.1048 113.321 56.6626C112.22 56.2204 111.019 55.9993 109.718 55.9993C108.422 55.9993 107.217 56.2204 106.105 56.6626C104.989 57.1048 104.025 57.7325 103.213 58.5457C102.398 59.3552 101.759 60.2996 101.296 61.3789C100.834 62.4582 100.603 63.6443 100.603 64.9372C100.603 66.2114 100.834 67.3937 101.296 68.4843C101.759 69.5748 102.398 70.5248 103.213 71.3343C104.025 72.1475 104.989 72.7752 106.105 73.2174C107.217 73.6597 108.422 73.8808 109.718 73.8808ZM141.806 74.6509H139.551V56.1229H129.195L129.009 61.362C128.945 62.9885 128.848 64.5456 128.716 66.0334C128.581 67.5249 128.374 68.8609 128.096 70.0414C127.818 71.2219 127.448 72.1831 126.985 72.9251C126.519 73.6634 125.916 74.0944 125.176 74.2181L122.673 73.7571C123.496 73.7983 124.18 73.5004 124.725 72.8633C125.274 72.2262 125.696 71.3324 125.993 70.1819C126.294 69.0277 126.516 67.6804 126.658 66.1402C126.801 64.5999 126.905 62.936 126.968 61.1484L127.217 54.1498H141.806V74.6509ZM123.998 80.5646H121.867L121.901 73.7571H145.053V80.5646H142.916V75.7302H124.031L123.998 80.5646Z" fill="white"/>
</svg>
