<svg width="232" height="78" viewBox="0 0 232 78" fill="none" xmlns="http://www.w3.org/2000/svg">
<path d="M3.78491 29.5564H23.6039H3.78491ZM29.4391 21.5735V2.26929V21.5735ZM24.3118 24.3137L10.0677 10.8385L24.3118 24.3137ZM25.8539 33.7931L11.6098 47.2678L25.8539 33.7931ZM48.9345 10.0456L34.3168 23.8737L48.9345 10.0456Z" fill="black"/>
<path d="M3.78491 29.5564H23.6039M29.4391 21.5735V2.26929M24.3118 24.3137L10.0677 10.8385M25.8539 33.7931L11.6098 47.2678M48.9345 10.0456L34.3168 23.8737" stroke="white" stroke-width="3" stroke-linecap="round" stroke-linejoin="round"/>
<path d="M43.4779 47.3106C41.8364 47.3106 40.3201 47.0506 38.9288 46.5306C37.5376 46.0106 36.3321 45.279 35.3124 44.3358C34.2926 43.3891 33.4966 42.2774 32.9241 41.0007C32.3555 39.7204 32.0712 38.3236 32.0712 36.8102C32.0712 35.2968 32.3555 33.9018 32.9241 32.6251C33.4966 31.3448 34.2983 30.2331 35.3294 29.2899C36.3568 28.3467 37.566 27.6134 38.9573 27.0898C40.3523 26.5698 41.8705 26.3098 43.512 26.3098C45.0928 26.3098 46.5788 26.5608 47.97 27.0629C49.3613 27.5649 50.5364 28.3162 51.4955 29.3168L50.0285 30.7047C49.1338 29.8404 48.1463 29.2164 47.0659 28.8327C45.9855 28.4489 44.8217 28.2571 43.5745 28.2571C42.2629 28.2571 41.046 28.4687 39.9239 28.8918C38.8018 29.315 37.8257 29.9139 36.9955 30.6885C36.1653 31.4667 35.5152 32.3722 35.0451 33.4051C34.5788 34.4379 34.3457 35.5729 34.3457 36.8102C34.3457 38.051 34.5788 39.1878 35.0451 40.2207C35.5152 41.2499 36.1653 42.1536 36.9955 42.9318C37.8257 43.71 38.8018 44.3107 39.9239 44.7339C41.046 45.1535 42.2629 45.3633 43.5745 45.3633C44.8217 45.3633 45.9855 45.1678 47.0659 44.7769C48.1463 44.3825 49.1338 43.7531 50.0285 42.8888L51.4955 44.2767C50.5364 45.2772 49.3613 46.0339 47.97 46.5467C46.5788 47.056 45.0814 47.3106 43.4779 47.3106ZM56.9828 47.1331H54.8902V26.4873H57.1704V43.5935L71.1359 26.4873H73.2285V47.1331H70.9483V30.0591L56.9828 47.1331ZM88.1322 47.1331H79.2104V26.4873H95.1775V28.3485H81.4906V35.0996H88.6269C91.2047 35.0996 93.1645 35.5962 94.5065 36.5896C95.8484 37.583 96.5194 39.0426 96.5194 40.9684C96.5194 42.9551 95.7973 44.4793 94.353 45.5408C92.9086 46.6023 90.835 47.1331 88.1322 47.1331ZM81.4906 36.8425V45.3956H88.0981C90.1148 45.3956 91.6368 45.0262 92.6641 44.2874C93.6952 43.5522 94.2108 42.4764 94.2108 41.0598C94.2108 38.2482 92.1732 36.8425 88.0981 36.8425H81.4906ZM102.564 47.1331H100.477V26.4873H102.752V43.5935L116.723 26.4873H118.81V47.1331H116.535V30.0591L102.564 47.1331ZM127.106 47.1331H124.797V26.4873H132.968C134.818 26.4873 136.409 26.767 137.739 27.3265C139.07 27.8895 140.093 28.6964 140.81 29.7471C141.526 30.7979 141.885 32.071 141.885 33.5665C141.885 35.0225 141.526 36.2758 140.81 37.3266C140.093 38.3809 139.07 39.1932 137.739 39.7634C136.409 40.3336 134.818 40.6187 132.968 40.6187H126.077L127.106 39.5859V47.1331ZM127.106 27.3426V39.7634L126.077 38.6983H132.906C135.089 38.6983 136.746 38.2518 137.876 37.3589C139.009 36.4623 139.576 35.1982 139.576 33.5665C139.576 31.9132 139.009 30.6347 137.876 29.731C136.746 28.8273 135.089 28.3754 132.906 28.3754H126.077L127.106 27.3426ZM155.071 47.3106C153.43 47.3106 151.913 47.0506 150.522 46.5306C149.127 46.0106 147.921 45.279 146.906 44.3358C145.886 43.3891 145.09 42.2774 144.517 41.0007C143.949 39.7204 143.664 38.3236 143.664 36.8102C143.664 35.2968 143.949 33.9018 144.517 32.6251C145.09 31.3448 145.891 30.2331 146.923 29.2899C147.95 28.3467 149.159 27.6134 150.55 27.0898C151.945 26.5698 153.464 26.3098 155.105 26.3098C156.686 26.3098 158.172 26.5608 159.563 27.0629C160.954 27.5649 162.13 28.3162 163.089 29.3168L161.622 30.7047C160.727 29.8404 159.739 29.2164 158.659 28.8327C157.579 28.4489 156.415 28.2571 155.168 28.2571C153.856 28.2571 152.639 28.4687 151.517 28.8918C150.395 29.315 149.419 29.9139 148.589 30.6885C147.758 31.4667 147.108 32.3722 146.638 33.4051C146.172 34.4379 145.939 35.5729 145.939 36.8102C145.939 38.051 146.172 39.1878 146.638 40.2207C147.108 41.2499 147.758 42.1536 148.589 42.9318C149.419 43.71 150.395 44.3107 151.517 44.7339C152.639 45.1535 153.856 45.3633 155.168 45.3633C156.415 45.3633 157.579 45.1678 158.659 44.7769C159.739 44.3825 160.727 43.7531 161.622 42.8888L163.089 44.2767C162.13 45.2772 160.954 46.0339 159.563 46.5467C158.172 47.056 156.675 47.3106 155.071 47.3106ZM184.071 47.1331H181.421L173.034 36.8425L174.905 35.7774L184.071 47.1331ZM168.729 47.1331H166.483V26.4873H168.729V47.1331ZM174.871 37.6655H168.047V35.7505H174.871V37.6655ZM183.605 26.4873L175.092 37.0469L172.971 36.6918L181.108 26.4873H183.605ZM189.092 47.1331H186.999V26.4873H189.28V43.5935L203.245 26.4873H205.338V47.1331H203.057V30.0591L189.092 47.1331ZM213.412 47.1331H211.32V26.4873H213.6V43.5935L227.565 26.4873H229.658V47.1331H227.378V30.0591L213.412 47.1331ZM220.429 24.9811C218.867 24.9811 217.635 24.6476 216.733 23.9805C215.827 23.3135 215.364 22.3793 215.346 21.1779H217.057C217.08 21.9633 217.398 22.5837 218.012 23.0391C218.623 23.491 219.428 23.7169 220.429 23.7169C221.426 23.7169 222.232 23.491 222.846 23.0391C223.456 22.5837 223.773 21.9633 223.795 21.1779H225.507C225.488 22.3793 225.022 23.3135 224.108 23.9805C223.191 24.6476 221.964 24.9811 220.429 24.9811ZM38.9573 61.8186L31.5083 51.8185H34.1581L40.3618 59.9896L46.5371 51.8185H49.2494L41.7947 61.7325L49.8408 72.4696H47.1284L40.3618 63.5884L33.5951 72.4696H30.9453L38.9573 61.8186ZM62.4075 72.6418C60.766 72.6418 59.244 72.3818 57.8414 71.8618C56.435 71.3418 55.2181 70.6048 54.1908 69.6509C53.1635 68.6969 52.3636 67.5852 51.7912 66.3157C51.2188 65.0498 50.9326 63.6583 50.9326 62.1413C50.9326 60.628 51.2188 59.2365 51.7912 57.967C52.3636 56.7011 53.1635 55.5911 54.1908 54.6372C55.2181 53.6833 56.4293 52.9463 57.8243 52.4263C59.2156 51.9027 60.7433 51.6409 62.4075 51.6409C64.0489 51.6409 65.5652 51.9027 66.9565 52.4263C68.3515 52.9463 69.5627 53.6779 70.59 54.6211C71.6211 55.5642 72.421 56.676 72.9896 57.9562C73.562 59.2329 73.8483 60.628 73.8483 62.1413C73.8483 63.6583 73.562 65.0551 72.9896 66.3318C72.421 67.6085 71.6211 68.7202 70.59 69.667C69.5627 70.6102 68.3515 71.3418 66.9565 71.8618C65.5652 72.3818 64.0489 72.6418 62.4075 72.6418ZM62.4075 70.6998C63.7153 70.6998 64.9265 70.4882 66.041 70.0651C67.1517 69.6419 68.1184 69.0412 68.941 68.263C69.7598 67.4884 70.3986 66.5847 70.8573 65.5518C71.316 64.519 71.5453 63.3822 71.5453 62.1413C71.5453 60.9041 71.316 59.7691 70.8573 58.7363C70.3986 57.7034 69.7598 56.7997 68.941 56.0251C68.1184 55.2469 67.1517 54.6462 66.041 54.223C64.9265 53.7998 63.7153 53.5882 62.4075 53.5882C61.0958 53.5882 59.879 53.7998 58.7569 54.223C57.6348 54.6462 56.6643 55.2469 55.8455 56.0251C55.0229 56.7997 54.3784 57.7034 53.9122 58.7363C53.4421 59.7691 53.2071 60.9041 53.2071 62.1413C53.2071 63.3607 53.4421 64.4921 53.9122 65.5357C54.3784 66.5793 55.0229 67.4884 55.8455 68.263C56.6643 69.0412 57.6348 69.6419 58.7569 70.0651C59.879 70.4882 61.0958 70.6998 62.4075 70.6998ZM76.4071 72.6418C76.1152 72.6418 75.8347 72.6274 75.5655 72.5987C75.2964 72.57 74.995 72.5162 74.6614 72.4373L74.849 70.49C75.2016 70.5689 75.5447 70.6084 75.8783 70.6084C76.8108 70.6084 77.5633 70.2587 78.1357 69.5594C78.7081 68.8637 79.1403 67.7825 79.4322 66.3157C79.7241 64.8525 79.9117 62.9698 79.9951 60.6674L80.3022 51.8185H95.1149V72.4696H92.8404V53.1149L93.4318 53.7066H81.7692L82.3322 53.088L82.0479 60.6082C81.9645 62.6739 81.809 64.458 81.5816 65.9607C81.3541 67.4669 81.0224 68.7167 80.5865 69.71C80.1505 70.7034 79.5895 71.4404 78.9034 71.9209C78.2172 72.4015 77.3851 72.6418 76.4071 72.6418ZM110.673 72.6418C109.031 72.6418 107.509 72.3818 106.106 71.8618C104.704 71.3418 103.487 70.6048 102.456 69.6509C101.429 68.6969 100.629 67.5852 100.056 66.3157C99.4839 65.0498 99.1977 63.6583 99.1977 62.1413C99.1977 60.628 99.4839 59.2365 100.056 57.967C100.629 56.7011 101.429 55.5911 102.456 54.6372C103.487 53.6833 104.698 52.9463 106.089 52.4263C107.481 51.9027 109.008 51.6409 110.673 51.6409C112.314 51.6409 113.832 51.9027 115.227 52.4263C116.619 52.9463 117.83 53.6779 118.861 54.6211C119.888 55.5642 120.688 56.676 121.26 57.9562C121.833 59.2329 122.119 60.628 122.119 62.1413C122.119 63.6583 121.833 65.0551 121.26 66.3318C120.688 67.6085 119.888 68.7202 118.861 69.667C117.83 70.6102 116.619 71.3418 115.227 71.8618C113.832 72.3818 112.314 72.6418 110.673 72.6418ZM110.673 70.6998C111.984 70.6998 113.195 70.4882 114.306 70.0651C115.417 69.6419 116.383 69.0412 117.206 68.263C118.025 67.4884 118.664 66.5847 119.122 65.5518C119.581 64.519 119.81 63.3822 119.81 62.1413C119.81 60.9041 119.581 59.7691 119.122 58.7363C118.664 57.7034 118.025 56.7997 117.206 56.0251C116.383 55.2469 115.417 54.6462 114.306 54.223C113.195 53.7998 111.984 53.5882 110.673 53.5882C109.365 53.5882 108.15 53.7998 107.028 54.223C105.902 54.6462 104.929 55.2469 104.111 56.0251C103.288 56.7997 102.644 57.7034 102.177 58.7363C101.711 59.7691 101.478 60.9041 101.478 62.1413C101.478 63.3607 101.711 64.4921 102.177 65.5357C102.644 66.5793 103.288 67.4884 104.111 68.263C104.929 69.0412 105.902 69.6419 107.028 70.0651C108.15 70.4882 109.365 70.6998 110.673 70.6998ZM143.039 71.4368H140.764V53.7066H130.319L130.131 58.7201C130.067 60.2765 129.968 61.7666 129.835 63.1903C129.699 64.6176 129.49 65.8961 129.21 67.0258C128.929 68.1554 128.556 69.0753 128.09 69.7854C127.62 70.4918 127.011 70.9042 126.264 71.0226L123.74 70.5815C124.57 70.6209 125.26 70.3358 125.809 69.7262C126.363 69.1165 126.789 68.2612 127.089 67.1602C127.392 66.0557 127.616 64.7664 127.76 63.2925C127.904 61.8186 128.008 60.2263 128.073 58.5157L128.323 51.8185H143.039V71.4368ZM125.076 77.0958H122.926L122.961 70.5815H146.314V77.0958H144.159V72.4696H125.11L125.076 77.0958Z" fill="white"/>
</svg>
